<mxfile>
    <diagram id="m-CclVNxF_m8vqWwn1kI" name="Page-1">
        <mxGraphModel dx="1715" dy="636" grid="0" gridSize="10" guides="1" tooltips="1" connect="1" arrows="1" fold="1" page="1" pageScale="1" pageWidth="1654" pageHeight="1169" math="0" shadow="0">
            <root>
                <mxCell id="0"/>
                <mxCell id="1" parent="0"/>
                <mxCell id="14" value="Component" style="rounded=0;whiteSpace=wrap;html=1;" vertex="1" parent="1">
                    <mxGeometry x="505" y="172" width="120" height="60" as="geometry"/>
                </mxCell>
                <mxCell id="15" value="HTML" style="rounded=0;whiteSpace=wrap;html=1;" vertex="1" parent="1">
                    <mxGeometry x="635" y="172" width="120" height="60" as="geometry"/>
                </mxCell>
                <mxCell id="17" value="CSS" style="rounded=0;whiteSpace=wrap;html=1;" vertex="1" parent="1">
                    <mxGeometry x="385" y="38" width="120" height="60" as="geometry"/>
                </mxCell>
                <mxCell id="18" value="JS" style="rounded=0;whiteSpace=wrap;html=1;" vertex="1" parent="1">
                    <mxGeometry x="635" y="338" width="120" height="60" as="geometry"/>
                </mxCell>
            </root>
        </mxGraphModel>
    </diagram>
</mxfile>